<mxfile host="app.diagrams.net" modified="2021-01-24T02:56:31.988Z" agent="5.0 (Macintosh; Intel Mac OS X 10_15_6) AppleWebKit/537.36 (KHTML, like Gecko) Chrome/86.0.4240.193 Safari/537.36" etag="f-g81q1WPqiLM43pgLU9" version="14.2.4" type="github">
  <diagram id="RM3w0XorAbCuJemfxaEq" name="Page-1">
    <mxGraphModel dx="946" dy="536" grid="1" gridSize="10" guides="1" tooltips="1" connect="1" arrows="1" fold="1" page="1" pageScale="1" pageWidth="827" pageHeight="1169" math="0" shadow="0">
      <root>
        <mxCell id="0" />
        <mxCell id="1" parent="0" />
        <mxCell id="dT8To8hcCCRivPOEcUgL-34" value="6" style="rounded=0;whiteSpace=wrap;html=1;fillColor=#ffe6cc;strokeColor=#d79b00;" vertex="1" parent="1">
          <mxGeometry x="500" y="140" width="60" height="40" as="geometry" />
        </mxCell>
        <mxCell id="dT8To8hcCCRivPOEcUgL-49" style="edgeStyle=orthogonalEdgeStyle;rounded=0;orthogonalLoop=1;jettySize=auto;html=1;exitX=0.5;exitY=1;exitDx=0;exitDy=0;entryX=0.5;entryY=0;entryDx=0;entryDy=0;" edge="1" parent="1" source="dT8To8hcCCRivPOEcUgL-35" target="dT8To8hcCCRivPOEcUgL-38">
          <mxGeometry relative="1" as="geometry" />
        </mxCell>
        <mxCell id="dT8To8hcCCRivPOEcUgL-35" value="" style="rounded=0;whiteSpace=wrap;html=1;fillColor=#ffe6cc;strokeColor=#d79b00;" vertex="1" parent="1">
          <mxGeometry x="560" y="140" width="60" height="40" as="geometry" />
        </mxCell>
        <mxCell id="dT8To8hcCCRivPOEcUgL-36" value="" style="rounded=0;whiteSpace=wrap;html=1;fillColor=#ffe6cc;strokeColor=#d79b00;" vertex="1" parent="1">
          <mxGeometry x="620" y="140" width="60" height="40" as="geometry" />
        </mxCell>
        <mxCell id="dT8To8hcCCRivPOEcUgL-37" value="3" style="rounded=0;whiteSpace=wrap;html=1;fillColor=#ffe6cc;strokeColor=#d79b00;" vertex="1" parent="1">
          <mxGeometry x="500" y="240" width="60" height="40" as="geometry" />
        </mxCell>
        <mxCell id="dT8To8hcCCRivPOEcUgL-50" style="edgeStyle=orthogonalEdgeStyle;rounded=0;orthogonalLoop=1;jettySize=auto;html=1;" edge="1" parent="1" source="dT8To8hcCCRivPOEcUgL-38" target="dT8To8hcCCRivPOEcUgL-41">
          <mxGeometry relative="1" as="geometry" />
        </mxCell>
        <mxCell id="dT8To8hcCCRivPOEcUgL-38" value="6" style="rounded=0;whiteSpace=wrap;html=1;fillColor=#ffe6cc;strokeColor=#d79b00;" vertex="1" parent="1">
          <mxGeometry x="560" y="240" width="60" height="40" as="geometry" />
        </mxCell>
        <mxCell id="dT8To8hcCCRivPOEcUgL-39" value="" style="rounded=0;whiteSpace=wrap;html=1;fillColor=#ffe6cc;strokeColor=#d79b00;" vertex="1" parent="1">
          <mxGeometry x="620" y="240" width="60" height="40" as="geometry" />
        </mxCell>
        <mxCell id="dT8To8hcCCRivPOEcUgL-40" value="9" style="rounded=0;whiteSpace=wrap;html=1;fillColor=#ffe6cc;strokeColor=#d79b00;" vertex="1" parent="1">
          <mxGeometry x="500" y="340" width="60" height="40" as="geometry" />
        </mxCell>
        <mxCell id="dT8To8hcCCRivPOEcUgL-51" style="edgeStyle=orthogonalEdgeStyle;rounded=0;orthogonalLoop=1;jettySize=auto;html=1;entryX=0.5;entryY=0;entryDx=0;entryDy=0;" edge="1" parent="1" source="dT8To8hcCCRivPOEcUgL-41" target="dT8To8hcCCRivPOEcUgL-44">
          <mxGeometry relative="1" as="geometry" />
        </mxCell>
        <mxCell id="dT8To8hcCCRivPOEcUgL-41" value="3" style="rounded=0;whiteSpace=wrap;html=1;fillColor=#ffe6cc;strokeColor=#d79b00;" vertex="1" parent="1">
          <mxGeometry x="560" y="340" width="60" height="40" as="geometry" />
        </mxCell>
        <mxCell id="dT8To8hcCCRivPOEcUgL-42" value="6" style="rounded=0;whiteSpace=wrap;html=1;fillColor=#ffe6cc;strokeColor=#d79b00;" vertex="1" parent="1">
          <mxGeometry x="620" y="340" width="60" height="40" as="geometry" />
        </mxCell>
        <mxCell id="dT8To8hcCCRivPOEcUgL-43" value="5" style="rounded=0;whiteSpace=wrap;html=1;fillColor=#ffe6cc;strokeColor=#d79b00;" vertex="1" parent="1">
          <mxGeometry x="500" y="430" width="60" height="40" as="geometry" />
        </mxCell>
        <mxCell id="dT8To8hcCCRivPOEcUgL-52" style="edgeStyle=orthogonalEdgeStyle;rounded=0;orthogonalLoop=1;jettySize=auto;html=1;" edge="1" parent="1" source="dT8To8hcCCRivPOEcUgL-44" target="dT8To8hcCCRivPOEcUgL-47">
          <mxGeometry relative="1" as="geometry" />
        </mxCell>
        <mxCell id="dT8To8hcCCRivPOEcUgL-44" value="9" style="rounded=0;whiteSpace=wrap;html=1;fillColor=#ffe6cc;strokeColor=#d79b00;" vertex="1" parent="1">
          <mxGeometry x="560" y="430" width="60" height="40" as="geometry" />
        </mxCell>
        <mxCell id="dT8To8hcCCRivPOEcUgL-45" value="3" style="rounded=0;whiteSpace=wrap;html=1;fillColor=#ffe6cc;strokeColor=#d79b00;" vertex="1" parent="1">
          <mxGeometry x="620" y="430" width="60" height="40" as="geometry" />
        </mxCell>
        <mxCell id="dT8To8hcCCRivPOEcUgL-46" value="3" style="rounded=0;whiteSpace=wrap;html=1;fillColor=#ffe6cc;strokeColor=#d79b00;" vertex="1" parent="1">
          <mxGeometry x="500" y="520" width="60" height="40" as="geometry" />
        </mxCell>
        <mxCell id="dT8To8hcCCRivPOEcUgL-47" value="5" style="rounded=0;whiteSpace=wrap;html=1;fillColor=#ffe6cc;strokeColor=#d79b00;" vertex="1" parent="1">
          <mxGeometry x="560" y="520" width="60" height="40" as="geometry" />
        </mxCell>
        <mxCell id="dT8To8hcCCRivPOEcUgL-48" value="9" style="rounded=0;whiteSpace=wrap;html=1;fillColor=#ffe6cc;strokeColor=#d79b00;" vertex="1" parent="1">
          <mxGeometry x="620" y="520" width="60" height="40" as="geometry" />
        </mxCell>
        <mxCell id="dT8To8hcCCRivPOEcUgL-53" value="访问3" style="text;html=1;strokeColor=none;fillColor=none;align=center;verticalAlign=middle;whiteSpace=wrap;rounded=0;" vertex="1" parent="1">
          <mxGeometry x="610" y="200" width="40" height="20" as="geometry" />
        </mxCell>
        <mxCell id="dT8To8hcCCRivPOEcUgL-54" value="访问6" style="text;html=1;strokeColor=none;fillColor=none;align=center;verticalAlign=middle;whiteSpace=wrap;rounded=0;" vertex="1" parent="1">
          <mxGeometry x="610" y="100" width="40" height="20" as="geometry" />
        </mxCell>
        <mxCell id="dT8To8hcCCRivPOEcUgL-55" value="访问9" style="text;html=1;strokeColor=none;fillColor=none;align=center;verticalAlign=middle;whiteSpace=wrap;rounded=0;" vertex="1" parent="1">
          <mxGeometry x="610" y="300" width="40" height="20" as="geometry" />
        </mxCell>
        <mxCell id="dT8To8hcCCRivPOEcUgL-56" value="访问5" style="text;html=1;strokeColor=none;fillColor=none;align=center;verticalAlign=middle;whiteSpace=wrap;rounded=0;" vertex="1" parent="1">
          <mxGeometry x="610" y="400" width="40" height="20" as="geometry" />
        </mxCell>
        <mxCell id="dT8To8hcCCRivPOEcUgL-57" value="访问3" style="text;html=1;strokeColor=none;fillColor=none;align=center;verticalAlign=middle;whiteSpace=wrap;rounded=0;" vertex="1" parent="1">
          <mxGeometry x="610" y="490" width="40" height="20" as="geometry" />
        </mxCell>
      </root>
    </mxGraphModel>
  </diagram>
</mxfile>
